<?xml version="1.0" standalone="no"?><!DOCTYPE svg PUBLIC "-//W3C//DTD SVG 1.1//EN" "http://www.w3.org/Graphics/SVG/1.1/DTD/svg11.dtd"><svg t="1685501057269" class="icon" viewBox="0 0 1024 1024" version="1.1" xmlns="http://www.w3.org/2000/svg" p-id="1713" xmlns:xlink="http://www.w3.org/1999/xlink" width="200" height="200"><path d="M746.666667 640h-512A149.717333 149.717333 0 0 1 85.333333 490.666667C85.333333 408.490667 152.490667 341.333333 234.666667 341.333333h512c82.176 0 149.333333 67.157333 149.333333 149.333334S828.842667 640 746.666667 640z m0-42.666667c58.624 0 106.666667-48.042667 106.666666-106.666666S805.290667 384 746.666667 384h-512A107.050667 107.050667 0 0 0 128 490.666667C128 549.290667 176.042667 597.333333 234.666667 597.333333h512z m-512-85.333333a21.333333 21.333333 0 1 1 0-42.666667h512a21.333333 21.333333 0 1 1 0 42.666667h-512z" fill="#ffffff" p-id="1714"></path></svg>