<?xml version="1.0" encoding="UTF-8"?><svg xmlns="http://www.w3.org/2000/svg" viewBox="0 0 63.45 11.55"><defs><style>.cls-1{fill:#fff;}</style></defs><path class="cls-1" d="m0,1.02h2.68c3.17,0,4.98,1.75,4.98,5.13s-1.81,5.2-4.89,5.2H0V1.02Zm2.57,9c2.22,0,3.41-1.3,3.41-3.87s-1.19-3.8-3.41-3.8h-.94v7.67h.94Z"/><path class="cls-1" d="m9.8,1.02h6.1v1.37h-4.47v2.87h3.79v1.37h-3.79v3.32h4.63v1.39h-6.25V1.02Z"/><path class="cls-1" d="m17.49,10.03l.95-1.12c.74.73,1.75,1.22,2.76,1.22,1.23,0,1.92-.59,1.92-1.46,0-.94-.69-1.23-1.64-1.65l-1.43-.62c-1.01-.42-2.1-1.19-2.1-2.71,0-1.63,1.42-2.85,3.39-2.85,1.22,0,2.36.5,3.11,1.3l-.83,1.04c-.65-.58-1.37-.93-2.29-.93-1.05,0-1.72.52-1.72,1.32,0,.9.83,1.22,1.65,1.57l1.42.6c1.23.52,2.1,1.28,2.1,2.79,0,1.65-1.37,3.01-3.63,3.01-1.42,0-2.73-.57-3.67-1.53Z"/><path class="cls-1" d="m26.69,6.93V1.02h1.63v6c0,2.34.93,3.1,2.22,3.1s2.26-.76,2.26-3.1V1.02h1.57v5.9c0,3.37-1.54,4.63-3.83,4.63s-3.84-1.26-3.84-4.63Z"/><path class="cls-1" d="m36.37,10.4c0-.66.48-1.14,1.08-1.14s1.09.48,1.09,1.14-.48,1.15-1.09,1.15-1.08-.49-1.08-1.15Z"/><path class="cls-1" d="m40.9,1.02h1.63v8.95h4.38v1.39h-6V1.02Z"/><path class="cls-1" d="m48.39,1.22c0-.56.41-.95,1.01-.95s1,.39,1,.95c0,.6-.41.98-1,.98s-1.01-.38-1.01-.98Zm.2,2.41h1.61v7.73h-1.61V3.63Z"/><path class="cls-1" d="m51.84,3.73l1.05-.08v-.97c0-1.58.73-2.68,2.44-2.68.53,0,1.01.11,1.36.25l-.32,1.22c-.27-.13-.57-.18-.84-.18-.69,0-1.02.45-1.02,1.37v.97h1.56v1.3h-1.56v6.42h-1.61v-6.42h-1.05v-1.21Z"/><path class="cls-1" d="m56.78,7.5c0-2.51,1.72-4.05,3.52-4.05,2.05,0,3.16,1.47,3.16,3.65,0,.32-.04.63-.08.83h-5.01c.13,1.47,1.05,2.36,2.38,2.36.69,0,1.28-.21,1.84-.58l.56,1.02c-.7.48-1.6.83-2.59.83-2.12,0-3.77-1.5-3.77-4.05Zm5.27-.7c0-1.32-.6-2.08-1.73-2.08-.97,0-1.82.73-1.98,2.08h3.7Z"/></svg>