<svg transform="rotate(-90)" xmlns="http://www.w3.org/2000/svg" viewBox="0 0 1480 720">
  <path fill="#FFF" fill-opacity="1"
    d="M0,32L21.8,53.3C43.6,75,87,117,131,117.3C174.5,117,218,75,262,85.3C305.5,96,349,160,393,181.3C436.4,203,480,181,524,186.7C567.3,192,611,224,655,224C698.2,224,742,192,785,197.3C829.1,203,873,245,916,266.7C960,288,1004,288,1047,261.3C1090.9,235,1135,181,1178,138.7C1221.8,96,1265,64,1309,74.7C1352.7,85,1396,139,1418,165.3L1440,192L1440,0L1418.2,0C1396.4,0,1353,0,1309,0C1265.5,0,1222,0,1178,0C1134.5,0,1091,0,1047,0C1003.6,0,960,0,916,0C872.7,0,829,0,785,0C741.8,0,698,0,655,0C610.9,0,567,0,524,0C480,0,436,0,393,0C349.1,0,305,0,262,0C218.2,0,175,0,131,0C87.3,0,44,0,22,0L0,0Z">
  </path>
</svg>