<?xml version="1.0" encoding="UTF-8"?><svg id="_图层_2" xmlns="http://www.w3.org/2000/svg" viewBox="0 0 2001 2000"><defs><style>.cls-1{fill:#fff;}</style></defs><path class="cls-1" d="m1056.57,859.52c27.43,1.48,75.43-11.52,110.43-23.52,36-18,75-33,124.25-67.43,31.59-19.56,60.88-42.16,87.74-67.58,17.32-16.39,32.57-35,45.97-54.99,23.84-35.57,76.04-109,85.7-154.96,5.48-13.27,10.82-26.51,13.1-40.84.96-6.02-.47-10.33-4.05-15.35-16.09-22.56-35.18-42.66-52.11-64.54-14.18-18.32-32.12-33.34-47.5-50.65-10.01-11.26-10.69-24.5-6.25-38.1,3.8-11.63,11.82-18.67,23.97-22.27,17.89-5.29,31.35,1.91,44.64,12.4,20.24,15.97,55.18,57.51,56.31,58.64,6.24,6.3,10.04,5.28,13.04-3.11,4.65-13,4.19-24.23,19.76-35.87,16.97-14.19,36.18-20.82,58.53-17.3,24.84,3.91,51.62,33.99,39.27,68.99-6.19,17.55-13.97,33.8-26.05,47.96-6.02,7.05-8.25,15.97-11.19,24.42-1.72,4.95.16,9.95,2.99,14.42,8.42,13.29,18.39,25.47,28.28,37.6,14.78,18.12,29.82,36.02,43.24,55.19,11.29,16.13,21.92,32.66,30,50.71,11.37,21.67,8.77,36.04,11.81,47.84,2.03,7.88,4.56,32.83,42.99,42.49,19.57,12.34,57.57,71.34,71.18,120.85,23.38,57.49,41.59,216.35,41.56,224.01-.05,10.45,4.49,19.05,9.38,27.51,2.51,4.35,3.52,8.65,4.04,13.5,2.02,18.87-2.51,35.7-14.6,50.47-3.37,4.11-6.27,8.6-9.44,12.87-7.03,9.48-16.56,14.51-27.4,19.38-13.3,5.97-26.58,6.85-39.72,5.05-31.89-4.37-62.53-32.66-49.7-72.75,2.72-8.48,7.37-16.34,9.41-25.28,2.51-11.01,4.86-63.26,3.38-117.91.36-20.17-1.91-40.05-7.93-59.06-6.38-20.11-12.45-40.69-26.46-57.48-3.25-3.9-6.53-7.75-10.32-11.09-5.42-4.77-8.15-4.56-12.37,1.37-6.49,9.11-13.54,17.61-21.23,25.82-22.2,29.09-78.2,38.09-112.85,28.21-28.49-7.56-53.91-21.94-65.37-51.16-7.18-24.07-14.58-46.7,4.63-96.82,11.76-24.13,30.44-41.52,52.61-55.39,14.71-9.21,30.68-15.89,48.25-18.03,7.43-.91,8.75-4.33,5.39-11.03-12.48-24.84-28.88-47.09-45.36-69.3-3.02-4.07-6.21-7.96-7.9-12.86-.88-2.55-2.67-4.61-4.65-6.42-3.58-3.27-6.91-3.22-8.72,1.6-4.22,11.21-10.32,21.52-15.14,32.46-10.89,24.69-22.85,48.88-37.05,72.04-9.98,16.28-19.04,33.25-29.55,49.19-12.53,19-77.5,94.92-95.95,110.72-18.54,22.88-79.54,66.88-141.81,94.18-71.73,27.7-116.98,53.87-193.73,57.7-29.25.17-137,3-180.58-13.7-16.45-7.34-32.82-14.81-48.41-24.01-12.59-7.43-22.86-17.38-33.3-27.2-23.62-22.21-42.46-48.24-59.73-75.53-26.98-45.56-31.98-99.64-32.61-113.02-.86-18.17-1.6-36.64.94-54.87.97-6.91,1.43-13.78-.05-20.64-.61-2.82-2.91-5.21-4.63-1.85-5.46,10.62-32.93,47.38-39.85,56.48-18.19,23.9-134.46,179.46-153.92,202.41-32.17,37.94-65.98,74.27-101.97,108.7-16.93,16.2-34.46,31.67-51.95,47.19-21.91,19.45-96.94,74.03-126.37,87.1-8.26,4.18-25.57,14.93-50.34,15.7-19.72.91-39.44-.02-59.06-2.07-17.46-1.83-30.13-11.78-38.83-26.37-7.82-13.12-1.26-33.86,11.84-41.75,12.12-7.3,26-8.89,39.21-12.51,11.03-3.02,71.48-29.6,82.91-35.69,21.14-11.27,40.84-24.78,61.32-37.06,13.63-8.18,70.98-47.38,84.9-60.08,21.59-19.69,42.25-40.39,63.95-59.94,9.65-8.69,39.78-41.58,40.87-42.64,17.79-17.31,73.26-88.84,87.56-103.44,11.91-12.15,45.21-54.55,51.09-62.75,10.22-14.27,20.97-28.13,30.74-42.75,7.03-10.53,15.66-19.96,22.81-30.58,15.86-23.53,32.39-46.44,46.1-71.54,11.95-21.89,22.57-44.53,35.65-65.87,9.11-14.87,15.97-31.11,24.31-46.48,8.24-15.19,16.08-30.54,23.09-46.34,1.76-3.96,3.28-7.8,3.47-12.14.91-20.25,13.87-45.52,53.99-45.52,33.88,0,45.62,38.6,46.95,52.93,1.79,19.2-6.56,34.55-18.71,48.38-8.62,9.81-19.65,17.08-28.18,27.11-6.79,7.99-13.15,15.89-16.59,25.99-3.83,11.26-8.42,22.24-12.13,33.58-3.36,10.26-6.67,20.66-9.88,30.93-3.35,10.72-15.74,68.25-16.44,76.44-9.16,85.39-6.16,99.39,14.84,148.39,8,20,40.9,60.89,55.01,76.64,17.68,19.73,40.31,31.86,66.14,39.12,47.85,11.24,116.7,12.64,128.42,12.76Zm581.85-144.91c-15.36,3.46-25.62,13.21-32.47,26.02-5.82,10.89-10.06,22.98-1.11,35.21,5.63,7.69,13.01,10.71,21.37,6.54,11.31-5.49,21.74-12.34,28.78-21.38,8.81-11.91,24.81-48.13-16.57-46.39Z"/><path class="cls-1" d="m580.61,1739.23c-61.29,0-122.58-.15-183.87.12-12.88.06-21-5.58-28.09-16.03-11.23-16.56,6.54-37.42,20.44-38.13,5.32-.27,10.65-.32,15.98-.32,118.31,0,236.63.15,354.94-.1,20.32-.04,38.55-6.81,49.95-24.75,8.75-13.77,12.83-28.54,7.08-45.47-6.4-18.83-19.68-29.73-36.71-37.56-3.48-1.6-7.19-1.97-10.94-1.94-17.58.11-35.15-.49-52.73.8-42.07,3.08-72.55-16.23-94.86-50.33-7.01-10.71-10.23-22.87-13.68-35.28-3.74-13.47-2.73-24.99.04-38.41,6.87-33.35,24.55-57.51,53.57-74.28,16.29-9.41,33.84-13.67,52.54-13.67,63.95-.01,127.91-.23,191.86.1,21.86.11,37.24,12.1,48.98,29.68,6.18,9.26,7.92,19.26,7.88,30.24-.23,60.96-.05,121.93-.07,182.9,0,7.76.68,15.01,4.4,22.34,3.51,6.92,3.73,15.12,8.12,22.23,11.64,18.81,28.31,29.41,49.43,34.81,30.37,7.77,55.21-2.27,75.7-23.65,13.59-14.18,20.23-32.37,20.26-52.32.11-69.48.11-138.97-.03-208.46-.02-8.01,1.34-15.12,6.45-21.61,6.53-8.29,16.7-11.6,28.7-8.5,8.43,2.18,16.73,11.7,17.7,20.7.43,3.96.33,7.98.34,11.97.02,69.75-.61,139.51.31,209.25.37,28.1-9.07,51.93-24.79,73.95-15.19,21.26-34.96,36.6-59.68,46.2-14.61,5.67-29.04,9.74-44.73,10.4-22.03.92-41.99-5.69-61.27-15.16-25.4-12.46-45.36-31.27-58.23-56.17-9.21-17.81-16-36.87-15.88-57.8.35-57.5.11-115.01.09-172.51,0-3.72.09-7.48-.34-11.17-.83-7-5.37-11.68-12.34-12.7-3.41-.5-6.91-.46-10.37-.46-57.29-.02-114.58.27-171.87-.16-22.28-.17-38.02,9.79-49.7,27.77-.29.45-.66.87-.82,1.37-4.14,12.76-3.16,26.01-1.6,38.76,1.66,13.57,10.81,23.02,22.67,30.07,7.47,4.44,15.15,5.93,23.61,5.87,21.58-.17,43.17.16,64.75-.13,18.63-.25,34.72,6.43,49.83,16.55,18.2,12.2,31.71,28.62,40.73,48.22,10.78,23.42,12.35,47.75,5.11,73-6.31,21.99-19.21,39-36.17,53.2-11.88,9.94-26.22,15.1-40.92,20.43-23.58,8.55-47.32,5.76-71.05,6.03-46.89.53-93.8.16-140.7.16v-.02Z"/><path class="cls-1" d="m108.83,1597.57c0-34.61,0-69.22.01-103.83,0-3.99-.02-8,.33-11.97,1.23-14.14,9.32-22.89,23.28-25.45,9.77-1.79,22.93,6.39,25.69,16,1.93,6.73,2.08,13.65,2.08,20.59-.01,58.04,0,116.07,0,174.11,0,2.93.08,5.86.09,8.78.02,5.89,2.98,8.9,8.85,8.9,26.91,0,54.09,2.33,80.66-.71,26.94-3.08,52.48-12.81,72.9-32.77,11.89-11.63,23.53-23.37,30.28-38.65,12.62-28.58,20.86-57.56,11.93-89.58-5.15-18.45-11.58-35.86-22.7-51.27-16.45-22.81-37.84-38.82-64.96-47.85-14.85-4.94-29.59-5.91-44.81-5.86-31.18.11-62.35.14-93.53-.02-18.32-.1-29.68-12.66-28.43-30.85.76-11.1,9.21-20.7,20.31-22.53,4.7-.77,9.55-.89,14.33-.97,29.83-.51,59.66.35,89.51-.74,27.53-1,54.17,4.78,78.85,16.75,35.56,17.26,63.61,43.1,83.73,77.48,7.13,12.18,11.84,25.28,17.28,38.12.65,1.54,1.06,3.18,1.26,4.84,2.29,19.27,10.43,38.33,7.15,57.42-3.16,18.35-4.35,37.07-10.96,55.2-16.43,45.03-45.46,78.75-86.13,102.83-13.42,7.95-27.65,15-43.71,16.63-.39.04-.83.13-1.27.24-1.41.35-2.77.9-4.03,1.62-11.18,6.42-23.6,5.23-35.79,5.24-33.57.04-67.15-.02-100.72-.09-6.41-.01-12.59-.47-18.42-4.07-10.09-6.24-12.98-15.51-12.97-26.55.04-32.48-.05-64.96-.08-97.44,0-4.53,0-9.05,0-13.58Z"/><path class="cls-1" d="m1605.26,1661.03c0-22.36.03-44.72-.01-67.08-.02-12.8-.47-13.13-12.92-13.03-14.39.11-28.78-.05-43.16.14-10.06.13-12.32,2.35-12.39,12.3-.15,22.89-.01,45.79-.13,68.68-.07,13.31-1.92,15.02-15.47,15.1-6.93.04-13.86.13-20.78-.07-9.01-.26-11.48-2.55-11.58-11.51-.21-17.83-.11-35.67-.11-53.51,0-19.43-.06-38.87.05-58.3.1-16.6,8.85-25.32,25.76-25.43,24.25-.17,48.49-.05,72.74-.07,2.66,0,5.33.05,7.99-.08,7.98-.41,9.82-2.09,9.9-10.23.18-19.17-.44-38.35.26-57.5.84-23.08,9.76-42.89,28.49-56.95,15.52-11.65,33.83-13.88,52.37-10.29,14.15,2.74,23.18,19.61,19.53,33.56-2.01,7.67-15.29,17.8-24.32,18.35-4.78.29-9.59.13-14.38.35-5.36.25-8.13,3.16-8.62,8.55-1.96,21.51-2.04,43.06-1.51,64.62.18,7.42,2.53,9.41,10.82,9.5,19.72.21,39.43.21,59.15.14,6.74-.02,11.86,2.26,15.03,8.47,1.94,3.8,1.66,7.06-1.28,10.21-8.35,8.95-16.22,18.28-22.82,28.64-2.93,4.6-7.75,5.28-12.68,5.31-12.52.07-25.05-.03-37.57.13-10.24.13-11.17,1.57-11.21,11.7-.1,30.6-1.58,112.53-.32,122.89.77,6.35,1.04,12.74-.76,19.03-1.65,5.78-5.26,9.15-11.47,9.2-8.79.08-17.59.25-26.37.1-9.55-.17-11.94-2.35-12.06-11.85-.25-19.96-.12-39.93-.15-59.9,0-3.73,0-7.45,0-11.18Z"/><path class="cls-1" d="m1264.93,1556.38c0-50.04.11-100.08-.1-150.13-.03-8.58,1.95-16.21,6.33-23.49,6.19-10.28,16.11-13.85,30.73-10.66,6.67,1.45,14.79,11.92,15.59,20.46.37,3.96.27,7.98.27,11.97.01,87.57,0,175.15,0,262.72,0,2.66,0,5.32,0,7.99.05,15.44.72,16.15,16.34,16.16,60.48.02,120.96-.04,181.44.07,11.42.02,23.05-.28,32.97,7.06,1.49,1.1,3.64,1.8,4.45,3.26,5.45,9.72,4.43,20.37,1.68,30.19-2.1,7.49-9.64,10.92-17.5,11.94-2.37.31-4.79.27-7.18.27-77.8,0-155.59.01-233.39-.01-6.13,0-12.22.04-17.65-3.74-9.37-6.52-11.69-16.72-13.7-26.78-1.07-5.38-.29-11.14-.29-16.73,0-46.85,0-93.7,0-140.54Z"/><path class="cls-1" d="m1733.83,1579.48c11.44-20.08,28.19-33.73,48.26-44.75,11.79-6.47,22.91-8.73,36.91-11.73,12.93-1.35,33,3,35,4,29.45,3.3,48,22.56,66.25,43.41,3.51,4.01,2.76,7.51-.86,11.14-18.03,18.09-35.9,36.34-53.95,54.41-16.73,16.75-33.62,33.34-50.43,50.02-1.11,1.1-2.67,2.23-2.08,4,.63,1.88,2.6,1.44,4.14,1.59,9.04.84,18.21,1.57,27.06-.47,10.13-2.33,19.46-6.87,26.86-14.54,4.25-4.4,8.15-9.15,12.55-13.38,14.35-13.8,24.11-11.5,37.53,1.74,8.92,13.09.54,32.8-8.12,40.28-8.61,7.43-15.5,16.77-25.55,22.72-23.7,14.03-49.34,20.46-76.35,15.36-21.48-4.05-40.9-13.45-56.93-29.64-13.93-14.07-24.14-30.03-31.58-48.08-6.54-29.55-5.54-53.55,11.29-86.07Zm95.76-4.4c-13.03-.17-12.92.07-25.55,6-15.36,7.22-30.25,18.86-33.04,36.92-.64,1-3.75,21.01,1.22,30.64,3.16,6.13,3.99,6.28,9.01,1.28,16.76-16.72,33.49-33.47,50.19-50.25,4.88-4.9,9.66-9.9,14.42-14.92,1.63-1.73,3.51-3.59,2.44-6.29-1.18-3-4.04-3.24-6.71-3.34-3.99-.15-7.99-.04-11.98-.04Z"/><path class="cls-1" d="m1172,1157c7-66,37.38-107.84,70.25-109.75,22.92-1.33,41.68,9.79,54.81,28.81,9.12,13.22,8.29,28.88,6.94,44.94-2.87,34.08-9.3,66.33-6,101,2.67,28.03-18.23,50.84-35.23,59.32-35.01,17.47-70.96.13-85.64-30.93-11.13-19.39-8.53-70.63-5.13-93.39Z"/><path class="cls-1" d="m609.87,1200.04c-.87-51.04,7.18-84.54,8.2-93.55,3.94-22.49,18.87-48.69,44.62-55.81,29.61-8.19,56.59.54,73.55,26.1,8.59,12.95,11.44,27.94,8.97,43.58-2.9,18.37-13.2,33.64-11.07,93.04,4.57,25.04,2.14,48.01-23.13,61.6-19.93,15.38-42.28,18.28-64.7,6.83-20.98-10.72-35.05-27.71-36.35-52.56-.53-10.08-.09-20.21-.09-29.23Z"/><path class="cls-1" d="m493.29,1418.09c-33.03,0-66.06-.19-99.08.12-9.03.09-16.26-3.27-22.04-9.39-6.83-7.23-11.67-15.98-7.15-26.1,4.63-10.37,11.87-18.4,24.57-18.7,3.73-.09,7.45-.22,11.18-.22,73.78-.01,147.56-.02,221.34,0,3.99,0,7.99.11,11.96.47,3.29.3,6.35,1.45,7.52,4.98,1.21,3.63-.88,6.06-3.39,8.27-4.79,4.22-9.74,8.27-14.28,12.74-5.14,5.06-9.25,10.98-12.68,17.32-4.25,7.85-10.64,10.77-19.68,10.66-32.76-.39-65.52-.15-98.28-.15v-.02Z"/><path class="cls-1" d="m515.94,1574.87c-20.23,0-40.5-.77-60.67.23-17.3.86-35.48-18.21-23.54-39.94,4.93-8.98,13.91-12.99,23.99-13.28,13.83-.4,27.68-.15,41.52-.16,25.29-.01,50.58.23,75.86-.13,8.47-.12,15.66,2.3,22.27,7.17,1.27.94,2.82,1.84,3.55,3.14,5.42,9.71,5.86,20.18,1.44,29.95-3.67,8.12-11.21,12.8-20.52,12.88-21.29.18-42.59.06-63.88.06,0,.03,0,.06,0,.08Z"/><path class="cls-1" d="m946.28,478.58c-15.28,10.42-57.28,17.42-72.88-10.37-7.34-12.59-6.81-25.6-2.7-38.42,6.18-19.28,20.31-33.8,41.31-27.8,28,7.62,67,46,34.28,76.58Z"/><path class="cls-1" d="m876.98,579.44c-18.96.93-30.31-13.37-41.91-26.97-3.41-3.99-5.68-8.95-8.5-13.44-7.94-12.61-1.57-25.03,4.95-33.6,6.48-7.42,16.48-19.42,38.82-10.56,36.66,18.14,44.46,40.86,44.48,48.47.07,22.69-13.54,36.58-37.84,36.11Z"/><path class="cls-1" d="m1206.19,1742.1c-12.94-.01-25.48-13.54-25.68-27.62-.26-18.4,11.71-26.22,25.89-27.43,12.58-1.07,27.35,14.76,27.54,27.37.17,11.9-15.65,27.69-27.74,27.68Z"/><path class="cls-1" d="m1488.77,1486.66c.07-12.07,13.42-26.59,24.14-26.25,11.99.38,23.58,13.42,23.56,26.51-.02,14.38-10.96,26.67-23.73,26.66-12.02,0-24.05-13.52-23.97-26.93Z"/></svg>