<svg width="1000" height="220" xmlns="http://www.w3.org/2000/svg" preserveAspectRatio="xMidYMid meet" version="1.1">

 <g>
  <title>Layer 1</title>
  <g id="svg_1" data-c-fill="0" fill="#ffffff">
   <path id="svg_2" d="m500.7,214.98215c-6.3,-1.1 -15.2,-3.9 -20.2,-6.4c-12.5,-6.2 -25.8,-19.5 -32.1,-32.1c-6.8,-13.9 -6.6,-12 -7.3,-76.1c-0.7,-63 -0.3,-59.9 -6.2,-63c-2.3,-1.2 -11.4,-1.4 -53.5,-1.4c-49.1,0 -50.9,0.1 -56.5,2.1c-15.6,5.7 -23.9,22.4 -18,36.2c2.7,6.3 8.7,12.6 14.6,15.3c4.8,2.3 5.9,2.4 29.4,2.4c26.3,0 27.4,0.2 38.6,5.6c9.4,4.5 16.4,10.8 22.8,20.7c7.4,11.4 9.7,19.3 9.7,34.4c0,9.2 -0.7,13.7 -3.8,24c-2.7,8.7 -17.4,24.8 -26.7,29.1c-2.8,1.3 -5.8,2.8 -6.9,3.3c-2,1.2 -8.8,2.6 -18.6,3.9c-8.7,1.2 -209.4,1.2 -214.4,0c-2.2,-0.5 -5.3,-2.2 -7,-3.9c-2.8,-2.8 -3.1,-3.8 -3.4,-10.3c-0.3,-8.7 0.8,-11.4 6.3,-14.5l4,-2.3l106,0c114.4,0 110.6,0.1 119.1,-5.3c2.2,-1.4 4.9,-3.5 6.1,-4.8c3.2,-3.5 8.3,-14.9 8.3,-18.6c0,-9.5 -8.7,-22 -18.5,-26.7c-5.5,-2.6 -5.8,-2.6 -28.7,-2.6c-20.1,0 -23.9,-0.3 -29.7,-2c-12.4,-3.7 -22.5,-11.1 -30.5,-22.5c-5.5,-7.8 -8.1,-14.2 -9.6,-23.8c-3.5,-22 4,-44.1 19.3,-56.8c6.8,-5.7 11.5,-8.3 21.1,-11.5l7,-2.4l63.3,0l63.4,0l5,2.5c6.8,3.5 12,8.4 15.4,14.7l2.9,5.3l0.8,46c1.3,81.6 1.1,78.3 3.8,84c7.4,16 22.4,26.5 38.1,26.7c10.9,0.1 25.5,-6.8 31.5,-14.9c1.6,-2.1 3.2,-4 3.5,-4.3c1.4,-1.1 4.3,-7.8 6,-13.9c1.8,-6.1 1.9,-11 1.9,-69.8c0,-71.1 -0.4,-67.4 7.6,-71.3c5.2,-2.6 10.7,-2.5 16,0c7.9,3.9 7.6,-0.1 7.2,79.3l-0.4,70.2l-2.3,6.5c-3,8.5 -8,17.5 -13.7,24.5c-5.3,6.5 -17.7,16.1 -24.4,18.9c-2.5,1 -5.2,2.2 -6.1,2.6c-6.3,3.2 -28.9,4.9 -40.2,3zm141.5,-0.6c-5.4,-3.8 -5.2,0.4 -5.2,-102.4c0,-86.3 0.2,-95.4 1.6,-98c2.6,-4.4 6.4,-6 13.8,-6c6.2,0 6.9,0.2 10.4,3.4l3.7,3.4l0.2,84.4l0.3,84.3l2.1,1.8c2,1.6 6.4,1.7 62.1,1.7c66,0 64.1,-0.2 67.4,6.2c1.2,2.2 1.5,5 1.2,9.9c-0.3,5.9 -0.8,7.2 -3.3,9.9l-2.9,3l-74.6,0c-65.9,0 -74.8,-0.2 -76.8,-1.6z"/>
   <path id="svg_3" d="m824,170.98215l0,-45l-17.2,0.2l-17.2,0.3l-0.7,2.5c-0.4,1.4 -0.7,13.4 -0.8,26.8l-0.1,24.3l-14.7,-0.3l-14.8,-0.3l-0.3,-34c-0.2,-18.7 0,-36 0.3,-38.4c0.5,-3.2 1.6,-5.4 4,-7.8l3.3,-3.3l28.5,0l28.5,0l0.4,-22.7c0.4,-20.6 0.7,-23.5 2.8,-29.8c2,-5.8 3.5,-8.1 8.4,-13.1c4.3,-4.2 7.6,-6.6 11,-7.7c6.9,-2.4 16,-3.1 23.6,-1.8c5.5,0.9 7,1.6 9.8,4.6c3,3.2 3.2,3.9 3.2,10.6c0,7 -0.1,7.2 -3.9,11c-3.8,3.8 -4,3.9 -11.2,3.9c-9.6,0.1 -11.6,1.6 -12.9,9.7c-1.1,6.5 -1.3,27.4 -0.4,32.2l0.7,3.1l21.6,0c24.6,0 26.1,0.4 26.1,6.6c0,2.7 -1.1,4.9 -4.5,9.1c-2.5,3.1 -5.7,7.5 -7.1,9.9l-2.6,4.4l-17.4,0l-17.4,0l0,45l0,45l-14.5,0l-14.5,0l0,-45z"/>
   <path id="svg_4" d="m929,214.58215c-16,-4.6 -29.5,-16.1 -36.6,-31.1c-11.3,-23.8 -6.9,-54.4 10.5,-72.1c11.6,-12 23.7,-17.2 41.7,-18.1c12.6,-0.6 22.1,1 31.4,5.3c12.5,5.8 24,17.5 24,24.2c-0.1,3.5 -1.8,5.5 -29.1,33.2l-29,29.5l3.4,0.8c7.8,1.9 20.9,-4.7 27.8,-13.8c2.1,-2.8 5,-5.7 6.4,-6.3c4.2,-1.9 13.5,-1.5 17.3,0.8l3.2,2l0,10.8c0,10.9 0,10.9 -3.5,15.5c-4.6,6 -15.4,14 -23.5,17.4c-6,2.5 -7.7,2.7 -23,3c-11.5,0.2 -17.9,-0.1 -21,-1.1zm26,-90c-0.5,-0.5 -3.5,-0.9 -6.7,-0.9c-13.7,0 -26.6,10.7 -30.8,25.5c-1.3,4.6 -1.4,6.5 -0.5,9.9l1.2,4.2l18.9,-18.9c11.8,-11.8 18.5,-19.2 17.9,-19.8zm-357.5,89.4c-4.5,-1.8 -7.6,-6.5 -8.2,-12.2c-0.7,-7.1 1,-12.1 5.1,-15.3c2.8,-2.1 4.4,-2.5 10.6,-2.5c7.1,0 7.3,0.1 11.1,3.9c3.8,3.7 3.9,4.1 3.9,10.7c0,8.3 -2.3,12.8 -7.5,15c-3.7,1.5 -11.8,1.8 -15,0.4zm-583.8,-0.9c-7.3,-0.6 -8.1,-0.9 -10.8,-3.9l-2.9,-3.2l0,-71.1c0,-44.8 0.4,-71.7 1,-72.9c3.2,-5.9 15.9,-8.1 22.7,-3.8c6.4,3.9 6.3,2.7 6.3,66.3l0,57.5l23.8,0c27.5,0 33.7,-1.1 47,-8c30.2,-15.7 46.9,-49.9 39.3,-80.4c-5.3,-21.1 -19.3,-38.9 -38.8,-49.3c-15,-8 -18.9,-8.6 -59.4,-9.2c-38.4,-0.6 -37.5,-0.5 -40.5,-6.2c-2.1,-4.1 -1.8,-13.7 0.6,-17.6c4.1,-6.8 2.8,-6.6 47.3,-6.7c35.1,-0.1 40.8,0.1 44.7,1.6c2.5,0.9 7.7,2.6 11.5,3.8c23.1,7.3 45.9,27.5 57.4,50.7c3.5,7 7.5,18.7 9.2,26.8c1.9,8.8 1.6,36.2 -0.4,45.3c-2.6,11.2 -10.4,30.2 -13.6,33.2c-0.4,0.3 -2.3,3.1 -4.4,6.2c-9.7,14.4 -30.1,29.8 -47.3,35.8c-15.4,5.3 -15,5.2 -50.9,5.5c-18.7,0.1 -37.5,0 -41.8,-0.4zm170.6,-90.2c-1.7,-0.5 -4.6,-2.6 -6.2,-4.6c-2.7,-3.3 -3.1,-4.5 -3.1,-9.9c0,-7.5 2,-11.5 7.1,-14.4c3.5,-1.9 5.1,-2 43,-1.9c43.9,0.1 43.3,0 47,6.9c2.6,4.7 2.5,13.5 -0.1,17.7c-4.2,6.9 -3.2,6.8 -46,7c-21.8,0.1 -39.9,-0.2 -41.7,-0.8zm582.1,-35.3c-5.6,-2.5 -7.4,-5.9 -7.4,-14.4c0,-7.3 0.1,-7.6 3.6,-10.8c3.4,-3.2 3.9,-3.4 11.1,-3.4c7.2,0 7.6,0.1 10.9,3.4c3.2,3.2 3.4,3.8 3.4,10.5c0,8.7 -1.8,12.7 -6.5,14.7c-4.3,1.7 -11,1.7 -15.1,0z"/>
   <path id="svg_5" d="m149.5,35.18215c-3.9,-1.3 -7.4,-4.4 -8.4,-7.4c-1.8,-5 -1.3,-12.9 0.9,-16.5c4.1,-6.7 -0.9,-6.3 79.6,-6.1l72.9,0.3l0.3,3.3c0.3,2.9 -0.4,4 -5.6,9c-3.2,3.1 -7.6,8.4 -9.8,11.7l-4,6l-61.9,0.2c-34.1,0 -62.9,-0.2 -64,-0.5z"/>
  </g>
 </g>
</svg>