<svg xmlns="http://www.w3.org/2000/svg" viewBox="0 0 949.26 765.51">
  <g fill="#FFFFFF">
    <path d="M577.44,765.43c-5.81,0-11.62.16-17.41,0-5.4-.19-10.79-.7-16.17-1.19s-10.75-1.1-16.12-1.68c-11-1.21-21.95-3-32.8-5.22a411.5,411.5,0,0,1-153.06-65.82,419.49,419.49,0,0,1-52.21-43.54,403.31,403.31,0,0,1-53.88-64.62c-2.67-4-2.49-4-5-.14a419.48,419.48,0,0,1-31.06,40.47c-9.43,10.89-19.44,21.2-29.89,31.08C162,662.07,153.9,669,145.54,675.68q-14.56,11.58-30,21.92c-6.48,4.32-12.69,9-19.43,12.95q-9.73,5.67-19.54,11.27c-3.28,1.87-3.42,1.82-5.64-1.44s-4.28-6.34-6.34-9.57A389.59,389.59,0,0,1,43.08,673,412.71,412.71,0,0,1,10.9,584.26a376.83,376.83,0,0,1-7.82-44C2.39,534.11,1.68,528,1,521.8c-.12-1.18-.13-2.37-.16-3.56a65.57,65.57,0,0,0-.58-9.07,27.26,27.26,0,0,1-.2-4.34c0-10.29-.16-20.59.05-30.88.14-6.58.77-13.15,1.25-19.72.24-3.42.58-6.83,1-10.24a410,410,0,0,1,7.48-45.25,402.7,402.7,0,0,1,26.49-79,390.13,390.13,0,0,1,26.55-49.48c2-3.12,4-6.21,6-9.32.36-.55.72-1.1,1.1-1.64,2.44-3.55,2.59-3.62,6.34-1.82,2.25,1.09,4.51,2.19,6.7,3.41,21.71,12.07,42.57,25.46,62,41a421.46,421.46,0,0,1,45.8,42.5c7.88,8.52,15.45,17.33,22.57,26.51,1.22,1.56,2.33,3.13,4.54,3.54,1.34.26,2.07,1.57,2.83,2.65q4.92,6.94,9.81,13.9c.6.87,1.18,1.75,1.84,2.57a1.13,1.13,0,0,0,2-.1c1.61-2.25,3.17-4.54,4.76-6.81q3.3-4.69,6.62-9.38c1-1.4,2-2.81,4-2.86.86,0,1.35-.75,1.85-1.37q2.47-3.09,4.94-6.19a409.6,409.6,0,0,1,34.64-38,413.79,413.79,0,0,1,68-53.52c3.76-2.39,3.68-2.06,1.82-6.11q-14.61-31.83-29.2-63.67-12.48-27.13-25-54.26-16-34.7-31.91-69.39L261.59,53.14c-.76-1.68-1.51-3.38-2.15-5.11A35.59,35.59,0,0,1,288.3.31c16.81-2.22,31.29,7.68,37.3,21,6.91,15.26,14,30.45,21,45.67Q361,98.43,375.44,129.9q10.33,22.48,20.71,44.93,12.14,26.43,24.24,52.87,2.39,5.22,4.8,10.43c1.38,3,1.56,3,4.84,1.83,6.45-2.32,12.87-4.74,19.38-6.9a395.79,395.79,0,0,1,57.52-14.34c8.32-1.42,16.66-2.72,25-3.56q11.6-1.17,23.25-1.95c11.34-.75,22.67-.41,34-.47A201.32,201.32,0,0,1,609.74,214c3.67.35,7.37.36,11,.89,8.47,1.22,17,2.09,25.46,3.48A390.61,390.61,0,0,1,708.72,234a420.32,420.32,0,0,1,68.34,30.14,406.86,406.86,0,0,1,61.46,41.75,412,412,0,0,1,40.37,37.89q12.27,13.2,23.38,27.38c1.14,1.47,2.2,2.92,4.24,3.31,1.37.27,2.13,1.49,2.9,2.57,2.53,3.54,5.12,7,7.58,10.63a410.4,410.4,0,0,1,28.75,48.69c.53,1.06,1,2.14,1.49,3.23a1.71,1.71,0,0,1-.59,2.12c-.94.72-1.94,1.38-2.94,2Q923.63,456.36,903.54,469q-11.88,7.5-23.75,15a13.1,13.1,0,0,0-1.29.92,1.19,1.19,0,0,0,.13,2c1.09.74,2.23,1.41,3.36,2.09q31.41,18.81,62.81,37.62c1.25.74,2.46,1.53,3.66,2.35a1.68,1.68,0,0,1,.67,2.09c-.52,1.35-1.06,2.7-1.7,4C941.88,546.34,936,557.38,929.34,568a419.35,419.35,0,0,1-25.06,36.54c-6.3,8.14-12.94,16-19.75,23.71s-13.93,14.78-21.15,21.93a373.8,373.8,0,0,1-29.71,26.11,406.68,406.68,0,0,1-45.2,31.29,411.61,411.61,0,0,1-151.12,53.75c-8.2,1.22-16.44,2.3-24.75,2.73-4.61.23-9.19.84-13.8,1.12-3.68.22-7.38.23-11.07.27-3.43,0-6.86,0-10.29,0Zm.32-83.36c10.16.2,20.27-.63,30.4-1.42,7.64-.6,15.2-1.69,22.75-2.84a299.39,299.39,0,0,0,33.22-7.27,327.81,327.81,0,0,0,135.43-75.07,329,329,0,0,0,74-99.87c.74-1.55,1.36-3.15,2.09-4.7a4.23,4.23,0,0,0-.09-3.81c-1.19-2.5-2.3-5-3.52-7.52A329.67,329.67,0,0,0,844,432.81a324.8,324.8,0,0,0-30.45-36.39,343.09,343.09,0,0,0-27.62-25.48,328,328,0,0,0-78.74-48.18,322.84,322.84,0,0,0-80-22.86c-7.31-1.06-14.63-1.92-22-2.46-9.34-.69-18.67-1.36-28-1.39-5,0-10,.44-15,.62-9.5.35-18.94,1.2-28.36,2.46a338.49,338.49,0,0,0-34.58,6.5,315.61,315.61,0,0,0-31.44,9.44q-2.24.81-4.4,1.77a1.47,1.47,0,0,0-.88,1.94,15.37,15.37,0,0,0,.74,1.84q3.94,8.64,7.9,17.27l24.85,53.91c.88,1.92,1.73,3.85,2.59,5.78,1.52,3.4,1.42,3.68-2.1,5.32-1.67.79-3.37,1.51-5.05,2.28l-43.5,20c-3.35,1.55-6.69,3.13-10.07,4.62-1.91.84-2.59.62-3.5-1.23-1.3-2.59-2.45-5.26-3.67-7.89l-30.72-66.89c-1.83-4-1.84-4-5.61-1.47a316.31,316.31,0,0,0-39,30.94A331.22,331.22,0,0,0,323.53,417a344.51,344.51,0,0,0-22.32,30.72,335.51,335.51,0,0,0-20.82,37.75c-.23.48-.42,1-.65,1.44a4.89,4.89,0,0,0,.08,4.57c.29.59.56,1.19.84,1.79a327.87,327.87,0,0,0,38.49,62.57,332.76,332.76,0,0,0,26.44,29.95c7,7,14.32,13.65,21.91,20A326.6,326.6,0,0,0,532.43,679c5.23.72,10.44,1.42,15.72,1.73,6.83.4,13.66.95,20.5,1.31C571.68,682.2,574.72,682.07,577.76,682.07ZM83.44,489.54c-.4,7.29.67,15.57.91,23.87.12,4,.52,7.9,1,11.82q1.26,9.81,2.85,19.57a311.3,311.3,0,0,0,14.12,54.31,14.43,14.43,0,0,0,.57,1.47,1,1,0,0,0,1.63.32c2.58-2.26,5.21-4.47,7.66-6.86A395.22,395.22,0,0,0,142,562.35a340.28,340.28,0,0,0,38.7-58.71c2.14-4.09,4-8.33,6-12.48a4.38,4.38,0,0,0,0-4.17c-.3-.59-.55-1.2-.83-1.8a305.87,305.87,0,0,0-17.65-32.72,323.47,323.47,0,0,0-43.07-55.57c-5.87-6.08-11.86-12-18.22-17.6-3.72-3.27-3.52-3.32-5.14,1.28a316.26,316.26,0,0,0-11.93,43.47,296.46,296.46,0,0,0-5,35.62C84.14,469.28,83.36,478.87,83.44,489.54Z"/>
    <path d="M791,534.23a2.8,2.8,0,0,1-.43.81c-.78.89-1.59,1.77-2.43,2.6L748.65,577.1c-.84.84-1.69,1.68-2.6,2.43s-1.76.81-2.82-.1-1.93-1.8-2.86-2.73L702,538.37c-.84-.84-1.7-1.66-2.59-2.44a1.51,1.51,0,0,0-2.15.05c-.9.77-1.75,1.61-2.59,2.44Q675.4,557.72,656.08,577c-.93.93-1.9,1.83-2.91,2.67a1.61,1.61,0,0,1-2.18,0,27.62,27.62,0,0,1-2.34-2.12q-20.45-20.42-40.86-40.85c-2.92-2.93-2.92-3,0-5.92l39.73-39.74c.84-.84,1.66-1.69,2.45-2.58a1.5,1.5,0,0,0,0-2.14c-.87-1-1.79-1.94-2.72-2.87L607.85,444c-.94-.93-1.86-1.88-2.72-2.87a1.58,1.58,0,0,1,0-2.17,24.05,24.05,0,0,1,1.86-2.05l41.13-41.13c.28-.28.56-.57.85-.84,2-1.79,2.43-1.82,4.28-.11.78.71,1.51,1.48,2.25,2.23q19.45,19.44,38.9,38.9c3.2,3.2,3,3.19,6.12,0l39.46-39.46c4-4,3.74-3.83,7.66.09L787,436.13c.84.84,1.69,1.68,2.46,2.58s.85,1.72-.08,2.79c-.78.89-1.63,1.72-2.47,2.56l-39.17,39.18c-3.21,3.2-3.51,2.87,0,6.41q20,20,40,40c.93.93,1.83,1.9,2.71,2.88A1.74,1.74,0,0,1,791,534.23Z"/>
    <path d="M513.39,454.94a132.49,132.49,0,0,1-6.08,38.88c-1.41,4.54-1.81,4.75-6,3a131.32,131.32,0,0,1-54.5-43.12c-.62-.85-1.26-1.69-1.81-2.59-.85-1.37-.67-2.19.64-3,.79-.46,1.64-.82,2.48-1.21l46.3-21.32c3.47-1.6,6.93-3.2,10.41-4.79a18.33,18.33,0,0,1,1.82-.76,1.6,1.6,0,0,1,2.25.95,13.74,13.74,0,0,1,.61,1.88,129.32,129.32,0,0,1,3.23,18.66A120.21,120.21,0,0,1,513.39,454.94Z"/>
  </g>
</svg>